<svg xmlns="http://www.w3.org/2000/svg" width="38.684" height="27.453" viewBox="0 0 38.684 27.453">
  <g id="Icon_feather-menu" data-name="Icon feather-menu" transform="translate(-2.5 -7)">
    <path id="Path_4773" data-name="Path 4773" d="M25.791,20.991H5A2.5,2.5,0,1,1,5,16h20.8a2.5,2.5,0,1,1,0,4.991Z" transform="translate(0 2.231)" fill="#fff"/>
    <path id="Path_4774" data-name="Path 4774" d="M38.688,11.991H5A2.5,2.5,0,1,1,5,7H38.688a2.5,2.5,0,0,1,0,4.991Z" transform="translate(0)" fill="#fff"/>
    <path id="Path_4775" data-name="Path 4775" d="M38.688,29.991H5A2.5,2.5,0,0,1,5,25H38.688a2.5,2.5,0,0,1,0,4.991Z" transform="translate(0 4.462)" fill="#fff"/>
  </g>
</svg>
