<svg xmlns="http://www.w3.org/2000/svg" xmlns:xlink="http://www.w3.org/1999/xlink" width="244.361" height="203.745" viewBox="0 0 244.361 203.745">
  <defs>
    <clipPath id="clip-path">
      <rect id="Rectangle_2025" data-name="Rectangle 2025" width="244.361" height="203.745" fill="#fff"/>
    </clipPath>
  </defs>
  <g id="Amar_Shohor_Logo_Final_1" data-name="Amar_Shohor Logo_Final 1" clip-path="url(#clip-path)">
    <path id="Path_1524" data-name="Path 1524" d="M77.345,154.582a8.231,8.231,0,0,1-5.882-2.441L2.439,83.226a8.373,8.373,0,0,1,0-11.763L71.463,2.439a8.373,8.373,0,0,1,11.763,0l52.823,52.823L124.286,67.024,77.345,20.083,20.083,77.345l57.262,57.262,63.143-63.143.111-.111L185.321,26.52a8.305,8.305,0,0,1,11.763,0l44.833,44.944a8.305,8.305,0,0,1,0,11.763L196.973,128.17a8.373,8.373,0,0,1-11.763,0L156.024,98.984l11.763-11.763,23.3,23.3,33.07-33.07-33.07-33.07L152.14,83.226l-.111.111-68.8,68.8A8.231,8.231,0,0,1,77.345,154.582Z" transform="translate(0.003 0.003)" fill="#196e55"/>
    <path id="Path_1525" data-name="Path 1525" d="M70.747,81.032,82.753,69.026,70.747,57.02,58.742,69.026Z" transform="translate(6.445 6.256)" fill="#ff6300"/>
    <path id="Path_1526" data-name="Path 1526" d="M36.674,185.378c-.333-1.776-.777-3.44-1-5.216H30.127l-1,5.216H24.8v-.666L30.793,159.3h4.217L41,184.713v.666ZM32.79,166.4l-2,9.987h3.995Z" transform="translate(2.721 17.479)" fill="#196e55"/>
    <path id="Path_1527" data-name="Path 1527" d="M56.194,185.368V168.833l-4.772,9.433c-1.554-3.107-3.107-6.214-4.772-9.433v16.535H42.1V159.4h3.884l5.327,10.764c1.776-3.551,3.551-7.1,5.327-10.764h3.773v25.968Z" transform="translate(4.619 17.49)" fill="#196e55"/>
    <path id="Path_1528" data-name="Path 1528" d="M73.674,185.378c-.333-1.776-.777-3.44-1-5.216H67.127l-1,5.216H61.8v-.666L67.792,159.3h4.217L78,184.713v.666ZM69.9,166.4l-2,9.987h4Z" transform="translate(6.781 17.479)" fill="#196e55"/>
    <path id="Path_1529" data-name="Path 1529" d="M88.633,185.368l-3-10.32h-2v10.32H79.2V159.4h7.1c3.884,0,6.325,2.108,6.325,6.1v3.218a5.706,5.706,0,0,1-3,5.438c1.221,3.551,2.33,7.1,3.551,10.542v.666ZM88.3,165.393a2.089,2.089,0,0,0-1.887-2.219H83.75v7.879h2.663c1.332,0,1.887-1.332,1.887-2.441Z" transform="translate(8.69 17.49)" fill="#196e55"/>
    <path id="Path_1530" data-name="Path 1530" d="M114.717,180.418c0,3.995-3.551,5.327-6.658,5.327s-6.658-1.443-6.658-5.327V176.2h4.439v4.106c0,1.221,1.221,1.665,2.219,1.665s2.219-.444,2.219-1.665v-1.776c0-2.33-.333-3.107-2.552-4.106-3.329-1.665-6.1-2.663-6.1-7.879v-2.108c0-3.995,3.44-5.438,6.436-5.438s6.436,1.443,6.436,5.438v4.217h-4.439v-4.106a1.778,1.778,0,0,0-2-1.665c-.777,0-2,.333-2,1.665v1.665c0,2.219.333,3.218,2.33,4.106,3.773,1.776,6.325,2.885,6.325,7.99Z" transform="translate(11.126 17.446)" fill="#196e55"/>
    <path id="Path_1531" data-name="Path 1531" d="M131.626,185.368h-4.55v-11.43H121.75v11.43H117.2V159.4h4.55v10.653h5.327V159.4h4.55Z" transform="translate(12.859 17.49)" fill="#196e55"/>
    <path id="Path_1532" data-name="Path 1532" d="M134.4,164.438c0-3.995,3.551-5.438,6.658-5.438s6.658,1.443,6.658,5.438v16.091c0,4-3.551,5.327-6.658,5.327s-6.658-1.443-6.658-5.327Zm8.767.111c0-1.221-1.11-1.665-2.108-1.665s-2.219.444-2.219,1.665v15.869c0,1.221,1.11,1.665,2.219,1.665,1,0,2.108-.444,2.108-1.665Z" transform="translate(14.747 17.446)" fill="#196e55"/>
    <path id="Path_1533" data-name="Path 1533" d="M164.926,185.368h-4.55v-11.43H155.05v11.43H150.5V159.4h4.55v10.653h5.327V159.4h4.55Z" transform="translate(16.513 17.49)" fill="#196e55"/>
    <path id="Path_1534" data-name="Path 1534" d="M167.7,164.438c0-3.995,3.551-5.438,6.658-5.438s6.658,1.443,6.658,5.438v16.091c0,4-3.551,5.327-6.658,5.327s-6.658-1.443-6.658-5.327Zm8.767.111c0-1.221-1.11-1.665-2.108-1.665s-2.219.444-2.219,1.665v15.869c0,1.221,1.11,1.665,2.219,1.665,1,0,2.108-.444,2.108-1.665Z" transform="translate(18.4 17.446)" fill="#196e55"/>
    <path id="Path_1535" data-name="Path 1535" d="M193.233,185.368l-3-10.32h-2v10.32H183.8V159.4h7.1c3.884,0,6.325,2.108,6.325,6.1v3.218a5.706,5.706,0,0,1-3,5.438c1.221,3.551,2.33,7.1,3.551,10.542v.666Zm-.444-19.975a2.089,2.089,0,0,0-1.887-2.219h-2.663v7.879H190.9c1.332,0,1.887-1.332,1.887-2.441Z" transform="translate(20.167 17.49)" fill="#196e55"/>
    <path id="Path_1536" data-name="Path 1536" d="M210.087,159.2H208.2v27.077h1.887Z" transform="translate(22.844 17.468)" fill="#ff6300"/>
    <path id="Path_1537" data-name="Path 1537" d="M12.287,159.2H10.4v27.077h1.887Z" transform="translate(1.141 17.468)" fill="#ff6300"/>
  </g>
</svg>
