<svg xmlns="http://www.w3.org/2000/svg" width="253.218" height="247.498" viewBox="0 0 253.218 247.498">
  <g id="Group_6400" data-name="Group 6400" transform="translate(-92.391 -132.349)">
    <path id="Path_4772" data-name="Path 4772" d="M26.35-5.611c55.346,0,219.934,27.35,219.934,82.7S156.945,201.547,101.6,201.547A100.212,100.212,0,0,1,1.388,101.335C1.388,45.99-29-5.611,26.35-5.611Z" transform="translate(99.325 169.453)" fill="#f7f7ff"/>
    <g id="Group_6399" data-name="Group 6399" transform="translate(4216.374 1688.496)">
      <path id="Path_4677" data-name="Path 4677" d="M-2887.4,2477.629l24.95.838,6.442.216a.971.971,0,0,0,.981-1.158l-.587-2.963a4.163,4.163,0,0,0-2.426-3.011l-.488-.215-3.987-1.738-3.532-5.044-21.539,1.37c-.076,1.093.276-3.957-.745,10.668a.97.97,0,0,0,.931,1.037Z" transform="translate(-1160.134 -3789.278)" fill="#196e55"/>
      <path id="Path_4678" data-name="Path 4678" d="M-2890.3,2463.176l-.733,10.516a.793.793,0,0,0,.761.849h0l31.392,1.053a.794.794,0,0,0,.8-.948l-.587-2.963a3.983,3.983,0,0,0-2.324-2.884l-4.475-1.952a.179.179,0,0,1-.074-.06l-3.476-4.963-21.286,1.354Zm31.408,12.77-31.392-1.053h0a1.146,1.146,0,0,1-1.1-1.225l.745-10.669a.176.176,0,0,1,.164-.164l21.539-1.37a.16.16,0,0,1,.155.075l3.5,5,4.43,1.933a4.335,4.335,0,0,1,2.528,3.139l.587,2.962a1.146,1.146,0,0,1-1.16,1.369Z" transform="translate(-1157.253 -3786.365)" fill="#5f5eaa"/>
      <path id="Path_4679" data-name="Path 4679" d="M-2887.4,2580.251l6.612.223a8.715,8.715,0,0,0-7.139-7.031l-.4,5.771a.97.97,0,0,0,.931,1.037Z" transform="translate(-1160.134 -3891.901)" fill="#070606"/>
      <path id="Path_4680" data-name="Path 4680" d="M-2890.642,2570.771l-.39,5.576a.793.793,0,0,0,.761.849h0l6.39.215a8.544,8.544,0,0,0-6.761-6.64Zm6.977,7-6.617-.223h0a1.146,1.146,0,0,1-1.1-1.225l.4-5.771a.176.176,0,0,1,.2-.162,8.9,8.9,0,0,1,7.283,7.174.176.176,0,0,1-.173.208Z" transform="translate(-1157.253 -3889.021)" fill="#070606"/>
      <path id="Path_4681" data-name="Path 4681" d="M-2439.758,2589.5l6.442.216a.971.971,0,0,0,.981-1.158l-.587-2.964a4.164,4.164,0,0,0-2.426-3.012l-.488-.214a6.658,6.658,0,0,0-1.424.866,6.745,6.745,0,0,0-2.5,6.266Z" transform="translate(-1582.822 -3900.317)" fill="#070606"/>
      <path id="Path_4682" data-name="Path 4682" d="M-2442.48,2586.439l6.293.211a.794.794,0,0,0,.8-.948l-.587-2.962a3.984,3.984,0,0,0-2.324-2.884l-.416-.184a6.56,6.56,0,0,0-1.316.811,6.605,6.605,0,0,0-2.452,5.957Zm6.281.563-6.442-.216a.176.176,0,0,1-.168-.151,6.955,6.955,0,0,1,2.563-6.429,6.9,6.9,0,0,1,1.461-.889.176.176,0,0,1,.143,0l.488.216a4.333,4.333,0,0,1,2.528,3.139l.587,2.962a1.146,1.146,0,0,1-1.16,1.369Z" transform="translate(-1579.945 -3897.422)" fill="#070606"/>
      <path id="Path_4683" data-name="Path 4683" d="M-2765.479,2465.329l17.245,2.122-2.03-2.9-15.215.776Z" transform="translate(-1275.914 -3789.278)" fill="#070606"/>
      <path id="Path_4684" data-name="Path 4684" d="M-2766.332,2462.51l14.841,1.826-1.747-2.494-13.094.668Zm15.19,2.224-17.245-2.122a.176.176,0,0,1-.155-.181.177.177,0,0,1,.167-.17l15.215-.776a.164.164,0,0,1,.153.075l2.03,2.9a.176.176,0,0,1-.166.276Z" transform="translate(-1273.028 -3786.386)" fill="#070606"/>
      <path id="Path_4685" data-name="Path 4685" d="M-4115.82,2271.6l20.806,13.8,5.372,3.561a.97.97,0,0,0,1.442-.471l1.054-2.831a4.162,4.162,0,0,0-.487-3.836l-.3-.439-2.484-3.57-.363-6.147-19.059-10.127-6.229,8.694a.969.969,0,0,0,.249,1.371Z" transform="translate(-2.889 -3597.941)" fill="#196e55"/>
      <path id="Path_4686" data-name="Path 4686" d="M-4112.677,2258.918l-6.139,8.569a.793.793,0,0,0,.2,1.121h0l26.178,17.356a.794.794,0,0,0,1.18-.387l1.054-2.829a3.988,3.988,0,0,0-.466-3.675l-2.787-4.009a.17.17,0,0,1-.031-.09l-.357-6.048-18.835-10.008Zm20.048,27.341-26.178-17.358a1.144,1.144,0,0,1-.295-1.62l6.228-8.695a.176.176,0,0,1,.226-.053l19.059,10.127a.177.177,0,0,1,.093.145l.36,6.1,2.758,3.969a4.336,4.336,0,0,1,.507,4l-1.054,2.829a1.147,1.147,0,0,1-1.705.558Z" transform="translate(0 -3595.098)" fill="#5f5eaa"/>
      <path id="Path_4687" data-name="Path 4687" d="M-4115.82,2337l5.513,3.656a8.715,8.715,0,0,0-2.392-9.73l-3.37,4.7a.97.97,0,0,0,.249,1.371Z" transform="translate(-2.889 -3663.34)" fill="#070606"/>
      <path id="Path_4688" data-name="Path 4688" d="M-4115.56,2328.293l-3.256,4.544a.793.793,0,0,0,.2,1.121h0l5.329,3.534a8.544,8.544,0,0,0-2.276-9.2Zm2.266,9.615-5.513-3.657a1.145,1.145,0,0,1-.295-1.62l3.37-4.7a.176.176,0,0,1,.259-.03,8.9,8.9,0,0,1,2.44,9.927.177.177,0,0,1-.262.083Z" transform="translate(0 -3660.448)" fill="#070606"/>
      <path id="Path_4689" data-name="Path 4689" d="M-3747.289,2609.44l5.372,3.561a.97.97,0,0,0,1.443-.472l1.054-2.831a4.162,4.162,0,0,0-.487-3.836l-.3-.439a6.691,6.691,0,0,0-1.666-.009,6.743,6.743,0,0,0-5.413,4.025Z" transform="translate(-350.614 -3921.988)" fill="#070606"/>
      <path id="Path_4690" data-name="Path 4690" d="M-3749.956,2606.487l5.248,3.479a.794.794,0,0,0,1.181-.387l1.054-2.829a3.987,3.987,0,0,0-.466-3.675l-.259-.375a6.583,6.583,0,0,0-1.545,0,6.607,6.607,0,0,0-5.212,3.787Zm5.053,3.773-5.372-3.561a.177.177,0,0,1-.064-.218,6.955,6.955,0,0,1,5.554-4.13,6.833,6.833,0,0,1,1.71.01.175.175,0,0,1,.122.074l.3.439a4.337,4.337,0,0,1,.506,4l-1.054,2.83a1.147,1.147,0,0,1-1.705.558Z" transform="translate(-347.727 -3919.099)" fill="#070606"/>
      <path id="Path_4691" data-name="Path 4691" d="M-3905.684,2318.5l13.557,10.383-.208-3.532-13.349-6.851Z" transform="translate(-201.336 -3651.634)" fill="#070606"/>
      <path id="Path_4692" data-name="Path 4692" d="M-3906.908,2316.68l11.7,8.958-.18-3.048-11.517-5.911Zm11.789,9.472-13.558-10.382a.177.177,0,0,1-.042-.234.177.177,0,0,1,.229-.063l13.349,6.851a.177.177,0,0,1,.095.146l.208,3.532a.176.176,0,0,1-.282.15Z" transform="translate(-198.451 -3648.76)" fill="#070606"/>
      <path id="Path_4693" data-name="Path 4693" d="M-2941.9-938.225c-2.74,20.478-14.808,33.2-31.166,36.784a44.882,44.882,0,0,1-6.748.944,55.192,55.192,0,0,1-15.89-1.407l.835-21.387c20.5,8.329,31.156-3.276,38.58-22.954l14.388,8.021Z" transform="translate(-1058.945 -574.797)" fill="#196e55"/>
      <path id="Path_4694" data-name="Path 4694" d="M-2718.2-359.039a44.887,44.887,0,0,1-6.748.944l-.325-12.622,7.073,11.678Z" transform="translate(-1313.809 -1117.2)" fill="#070606"/>
      <path id="Path_4695" data-name="Path 4695" d="M-1219.445-1545.566v106.9a6.388,6.388,0,0,1-6.391,6.385h-6.943a6.383,6.383,0,0,0,6.386-6.385v-106.9a6.383,6.383,0,0,0-6.386-6.386h6.943a6.388,6.388,0,0,1,6.391,6.386Z" transform="translate(-2720.395 -3.954)" fill="#ff6300"/>
      <path id="Path_4696" data-name="Path 4696" d="M-1230.3-1436.472h4.46a6.154,6.154,0,0,0,6.15-6.145v-106.9a6.154,6.154,0,0,0-6.15-6.144h-4.46a6.638,6.638,0,0,1,4.144,6.144v106.9a6.638,6.638,0,0,1-4.144,6.145Zm4.46.482h-6.943v-.482a6.151,6.151,0,0,0,6.144-6.145v-106.9a6.151,6.151,0,0,0-6.144-6.144v-.483h6.943a6.637,6.637,0,0,1,6.632,6.627v106.9a6.637,6.637,0,0,1-6.632,6.627Z" transform="translate(-2720.395)" fill="#fdba58"/>
      <path id="Path_4697" data-name="Path 4697" d="M-2392.618-1545.577v106.9a6.388,6.388,0,0,1-6.388,6.388h-64.766a6.388,6.388,0,0,1-6.388-6.388v-106.9a6.388,6.388,0,0,1,6.388-6.388h64.766a6.388,6.388,0,0,1,6.388,6.388Z" transform="translate(-1554.236 -3.941)" fill="#fff"/>
      <path id="Path_4698" data-name="Path 4698" d="M-2466.655-1554.672a6.219,6.219,0,0,0-6.212,6.212v106.9a6.219,6.219,0,0,0,6.212,6.212h64.765a6.218,6.218,0,0,0,6.212-6.212v-106.9a6.219,6.219,0,0,0-6.212-6.212ZM-2401.89-1435h-64.765a6.572,6.572,0,0,1-6.564-6.564v-106.9a6.572,6.572,0,0,1,6.564-6.564h64.765a6.572,6.572,0,0,1,6.565,6.564v106.9a6.573,6.573,0,0,1-6.565,6.564Z" transform="translate(-1551.352 -1.057)" fill="#070606"/>
      <path id="Path_4699" data-name="Path 4699" d="M-2008.267-1548.868l-2.907,3.958a4.27,4.27,0,0,1-3.442,1.743h-14.525a4.269,4.269,0,0,1-3.441-1.743l-2.907-3.958Z" transform="translate(-1963.887 -6.86)" fill="#d1d1e6"/>
      <path id="Path_4700" data-name="Path 4700" d="M-2470.159,221.593V232.8a6.388,6.388,0,0,0,6.388,6.388h64.765a6.388,6.388,0,0,0,6.388-6.388V221.593Z" transform="translate(-1554.236 -1675.417)" fill="#fff"/>
      <path id="Path_4701" data-name="Path 4701" d="M-2472.867,218.886v11.03a6.219,6.219,0,0,0,6.212,6.212h64.765a6.219,6.219,0,0,0,6.212-6.212v-11.03Zm70.977,17.594h-64.765a6.572,6.572,0,0,1-6.564-6.564V218.709a.176.176,0,0,1,.176-.176h77.541a.177.177,0,0,1,.177.176v11.206a6.573,6.573,0,0,1-6.565,6.564Z" transform="translate(-1551.352 -1672.534)" fill="#070606"/>
      <path id="Path_4702" data-name="Path 4702" d="M-1983.164-242.32a9.237,9.237,0,0,1-9.237,9.238,9.24,9.24,0,0,1-9.238-9.238,9.237,9.237,0,0,1,9.238-9.237,9.234,9.234,0,0,1,9.237,9.237Z" transform="translate(-1995.789 -1229.501)" fill="#ff6300"/>
      <path id="Path_4703" data-name="Path 4703" d="M-1891-188.035l-2.861-3.045a.176.176,0,0,1,.007-.249.176.176,0,0,1,.249.007l2.741,2.918,8.571-7.9a.177.177,0,0,1,.249.01.176.176,0,0,1-.01.249l-8.7,8.021a.176.176,0,0,1-.248-.009Z" transform="translate(-2097.319 -1281.528)" fill="#070606"/>
      <path id="Path_4704" data-name="Path 4704" d="M-1940.665,335.171h0a2.4,2.4,0,0,1-2.4,2.4h-10.488a2.4,2.4,0,0,1-2.4-2.4,2.4,2.4,0,0,1,2.4-2.4h10.488a2.4,2.4,0,0,1,2.4,2.4Z" transform="translate(-2038.849 -1780.198)" fill="#d1d1e6"/>
      <path id="Path_4705" data-name="Path 4705" d="M-3694.549,450.841s20.872,11.1,31.833,11.094,3.115-19.334,3.115-19.334-22.249-2.488-34.948,8.239Z" transform="translate(-400.319 -1883.47)" fill="#070606"/>
      <path id="Path_4706" data-name="Path 4706" d="M-3396.252,490.094l-26.317,1.407s-4.472-13.44-10.142-31.6c-1.658-5.3-3.415-11.008-5.2-16.9-8.177-27.057-16.8-58.015-17.959-71.784l34.464-1.407,25.153,120.281Z" transform="translate(-625.261 -1815.106)" fill="#fff"/>
      <path id="Path_4707" data-name="Path 4707" d="M-3458.563,368.448c1.255,14.241,10.437,46.748,17.937,71.565,1.718,5.677,3.467,11.361,5.2,16.9,5.314,17.019,9.628,30.049,10.1,31.468l25.978-1.389-25.08-119.934-34.131,1.393Zm33.108,120.29a.177.177,0,0,1-.167-.121c-.045-.134-4.536-13.649-10.143-31.6-1.731-5.536-3.48-11.222-5.2-16.9-7.537-24.94-16.772-57.646-17.966-71.821a.175.175,0,0,1,.168-.19l34.465-1.407a.163.163,0,0,1,.18.14l25.153,120.281a.177.177,0,0,1-.164.212l-26.317,1.407Z" transform="translate(-622.375 -1812.167)" fill="#070606"/>
      <path id="Path_4708" data-name="Path 4708" d="M-3134.625,1555.463s-1.627,11.947-4.026,21.847c-1.657-5.3-3.415-11.008-5.2-16.9l9.224-4.948Z" transform="translate(-919.322 -2932.513)" fill="#070606"/>
      <path id="Path_4709" data-name="Path 4709" d="M-3143.193,612.121l-.025,0a.176.176,0,0,1-.149-.2,58.425,58.425,0,0,0-3.856-30.723,117.329,117.329,0,0,0-6.671-12.916c-1.03-1.808-2.1-3.678-3.1-5.54a134.116,134.116,0,0,1-15.056-46.868.177.177,0,0,1,.153-.2.178.178,0,0,1,.2.153,133.756,133.756,0,0,0,15.016,46.745c1,1.858,2.067,3.726,3.1,5.532a117.845,117.845,0,0,1,6.69,12.956,58.768,58.768,0,0,1,3.879,30.908.176.176,0,0,1-.174.151Z" transform="translate(-892.741 -1952.573)" fill="#070606"/>
      <path id="Path_4710" data-name="Path 4710" d="M-4007.254,581.761c40-64.205,18.73-36.273,25.235-102.34,10.821.593,24.306-.641,35.127,0,4.448,46.691,11.013,56.1-36.081,115.2l-24.282-12.861Z" transform="translate(-105.612 -1918.227)" fill="#fff"/>
      <path id="Path_4711" data-name="Path 4711" d="M-4009.892,578.827l23.985,12.7c42.522-53.385,41.187-65.826,37.219-102.7-.411-3.825-.837-7.779-1.251-12.115-10.694-.614-24.1.585-34.808.018-2.2,22.468-1.162,34.247-.474,42.046,1.368,15.5,1.578,17.9-24.671,60.041Zm23.949,13.084-24.281-12.861a.176.176,0,0,1-.067-.249c26.289-42.2,26.079-44.567,24.719-59.984-.691-7.832-1.736-19.669.491-42.279a.176.176,0,0,1,.185-.158c10.782.589,24.337-.638,35.129,0a.176.176,0,0,1,.165.159c.419,4.392.849,8.392,1.266,12.261,1.989,18.49,3.3,30.705-1.2,45.2s-14.994,31.276-36.181,57.864a.175.175,0,0,1-.22.045Z" transform="translate(-102.726 -1915.36)" fill="#070606"/>
      <path id="Path_4712" data-name="Path 4712" d="M-3635.364-515.648c-1.651,17.024-8.081,33.922-8.081,33.922a33.844,33.844,0,0,0-8.038-3.044c-18.944-4.754-43.066.835-43.066.835,11.208-71.537,44-65.8,45.688-65.257,12.809,4.132,14.926,18.883,13.5,33.543Z" transform="translate(-400.319 -948.695)" fill="#196e55"/>
      <path id="Path_4713" data-name="Path 4713" d="M-2125.239-121.577s.674-4.44,1.957-4.269.3,4.236.3,4.236" transform="translate(-1879.303 -1347.972)" fill="#fff"/>
      <path id="Path_4714" data-name="Path 4714" d="M-2128.127-124.281a.177.177,0,0,1-.175-.2c.072-.472.751-4.607,2.155-4.417a.735.735,0,0,1,.523.335c.671.981-.049,3.99-.08,4.117a.177.177,0,0,1-.212.13.175.175,0,0,1-.13-.213c.227-.936.766-4.023-.2-4.023-.789,0-1.465,2.507-1.71,4.124a.177.177,0,0,1-.174.15Z" transform="translate(-1876.415 -1345.091)" fill="#070606"/>
      <path id="Path_4715" data-name="Path 4715" d="M-2118.729-156.84s2.3-2,3.1-2.674c1.558-1.315,5.253-4.452,5.963-3.683.881.954-4.1,5.277-4.1,5.277s1.8-.573,1.459,1.142c.738-.718,1.755.687.769,1.556,0,0,1.588.257.055,1.887a8.476,8.476,0,0,1-3.644,2.335,3.717,3.717,0,0,0-2.967,2.411l-.633-8.251Z" transform="translate(-1885.438 -1312.663)" fill="#fff"/>
      <path id="Path_4716" data-name="Path 4716" d="M-2121.438-159.611l.578,7.531a3.847,3.847,0,0,1,2.785-1.933,8.349,8.349,0,0,0,3.57-2.288c.613-.652.663-1.019.6-1.213-.1-.3-.548-.379-.553-.38a.176.176,0,0,1-.088-.306.836.836,0,0,0-.1-1.428.414.414,0,0,0-.427.131.176.176,0,0,1-.3-.16c.083-.417.036-.709-.14-.865-.285-.254-.886-.14-1.094-.075a.176.176,0,0,1-.207-.082.175.175,0,0,1,.038-.219c1.133-.984,4.085-3.766,4.144-4.822a.258.258,0,0,0-.058-.2c-.635-.7-5.139,3.25-5.719,3.7-.711.6-2.644,2.279-3.029,2.614Zm.275,8.19-.634-8.251a.177.177,0,0,1,.06-.147c1.31-1.15,3.11-2.683,3.164-2.729,3.2-2.7,5.464-4.345,6.142-3.614a.6.6,0,0,1,.149.461c-.064,1.167-2.7,3.663-3.814,4.67a.96.96,0,0,1,1.112,1.069c.8-.258,1.547.927.87,1.81a.918.918,0,0,1,.538.526c.141.414-.085.942-.674,1.568a8.687,8.687,0,0,1-3.716,2.381c-1.163.379-2.049.482-2.861,2.314a.176.176,0,0,1-.337-.058Z" transform="translate(-1882.547 -1309.817)" fill="#070606"/>
      <path id="Path_4717" data-name="Path 4717" d="M-3157.939-364.52c12.95,24.661,37.988,33.161,62.616,17.128l-3.3-16.139c-19.763,7.2-35.51,6.68-42.556-14.3" transform="translate(-906.043 -1110.499)" fill="#196e55"/>
      <path id="Path_4718" data-name="Path 4718" d="M-3134.128-125.571a.171.171,0,0,1-.05-.007,37.8,37.8,0,0,1-5.494-2.127c-8.667-4.148-16.039-11.658-21.319-21.718a.177.177,0,0,1,.074-.238.178.178,0,0,1,.238.074c5.245,9.992,12.562,17.449,21.16,21.565a37.437,37.437,0,0,0,5.443,2.107.176.176,0,0,1,.118.219.177.177,0,0,1-.169.125Z" transform="translate(-903.147 -1325.513)" fill="#070606"/>
      <path id="Path_4719" data-name="Path 4719" d="M-2050.974-69.547a10.379,10.379,0,0,0-1.125,1" transform="translate(-1948.233 -1401.035)" fill="#fff"/>
      <path id="Path_4720" data-name="Path 4720" d="M-2055.109-71.309a.177.177,0,0,1,0-.25,10.49,10.49,0,0,1,1.146-1.018.175.175,0,0,1,.245.04.176.176,0,0,1-.039.246,10.511,10.511,0,0,0-1.1.983.176.176,0,0,1-.249,0Z" transform="translate(-1945.348 -1398.147)" fill="#070606"/>
      <path id="Path_4721" data-name="Path 4721" d="M-2023.654-50.617a10.461,10.461,0,0,0-1.125,1" transform="translate(-1973.981 -1418.875)" fill="#fff"/>
      <path id="Path_4722" data-name="Path 4722" d="M-2027.78-52.38a.176.176,0,0,1,0-.249,10.364,10.364,0,0,1,1.147-1.019.175.175,0,0,1,.246.04.175.175,0,0,1-.04.245,10.459,10.459,0,0,0-1.1.983.174.174,0,0,1-.249,0Z" transform="translate(-1971.104 -1415.987)" fill="#070606"/>
      <path id="Path_4723" data-name="Path 4723" d="M-2010.554-23.907a10.433,10.433,0,0,0-1.125,1" transform="translate(-1986.327 -1444.048)" fill="#fff"/>
      <path id="Path_4724" data-name="Path 4724" d="M-2014.69-25.672a.176.176,0,0,1,0-.249,10.5,10.5,0,0,1,1.147-1.019.175.175,0,0,1,.246.04.176.176,0,0,1-.04.246,10.467,10.467,0,0,0-1.1.983.176.176,0,0,1-.249,0Z" transform="translate(-1983.441 -1441.158)" fill="#070606"/>
      <path id="Path_4725" data-name="Path 4725" d="M-2773.083,142.052a36.964,36.964,0,0,1-15.846-3.662c.049-.135.1-.27.151-.4a8.165,8.165,0,0,1,10.6-4.574,8.175,8.175,0,0,1,5.092,8.64Z" transform="translate(-1253.814 -1591.766)" fill="#070606"/>
      <path id="Path_4726" data-name="Path 4726" d="M-2246.408-1.632l-4.334-12.722a.177.177,0,0,1,.11-.224.179.179,0,0,1,.224.11l4.334,12.722a.177.177,0,0,1-.11.224.176.176,0,0,1-.224-.11Z" transform="translate(-1761.015 -1452.832)" fill="#070606"/>
      <path id="Path_4727" data-name="Path 4727" d="M-2203.845-47.967a1.281,1.281,0,0,0,.717,1.66,1.283,1.283,0,0,0,1.659-.717,1.278,1.278,0,0,0-.715-1.663,1.281,1.281,0,0,0-1.661.721Zm.587,1.987a1.632,1.632,0,0,1-.914-2.117,1.632,1.632,0,0,1,2.119-.917,1.629,1.629,0,0,1,.912,2.12,1.632,1.632,0,0,1-2.116.914Z" transform="translate(-1804.805 -1420.276)" fill="#070606"/>
      <path id="Path_4728" data-name="Path 4728" d="M-2973.255-830.384l-.381-5.671a6.443,6.443,0,0,1-.81-2.181,8.221,8.221,0,0,1,5.394-9.064,5.987,5.987,0,0,1,7.938,4.762c.052.26.078.519.1.775.493,1.039,1.943,2.441,1.428,3.129a3.749,3.749,0,0,1-2.242.511c-.771,2.436-1.134,4.861-4.9,4.713l.194,9.532" transform="translate(-1078.861 -667.734)" fill="#fff"/>
      <path id="Path_4729" data-name="Path 4729" d="M-2969.4-826.615a.177.177,0,0,1-.176-.173l-.194-9.531a.174.174,0,0,1,.183-.18c3.33.124,3.783-1.621,4.725-4.591a.179.179,0,0,1,.173-.123,3.722,3.722,0,0,0,2.1-.44c.272-.363-.272-1.145-.751-1.836a7.288,7.288,0,0,1-.712-1.17c-.026-.257-.052-.511-.1-.758a5.976,5.976,0,0,0-2.779-4.153,5.921,5.921,0,0,0-4.932-.476,8.047,8.047,0,0,0-5.274,8.865,6.274,6.274,0,0,0,.787,2.122.178.178,0,0,1,.025.079l.381,5.671a.176.176,0,0,1-.164.187.182.182,0,0,1-.187-.164l-.378-5.627a6.648,6.648,0,0,1-.811-2.205,8.411,8.411,0,0,1,5.512-9.263,6.275,6.275,0,0,1,5.222.509,6.32,6.32,0,0,1,2.945,4.389c.051.254.078.51.1.758.518,1.061,2.006,2.47,1.4,3.283-.332.444-1.6.581-2.254.583-.9,2.873-1.408,4.786-4.849,4.717l.191,9.346a.177.177,0,0,1-.172.18Z" transform="translate(-1075.989 -664.821)" fill="#070606"/>
      <path id="Path_4730" data-name="Path 4730" d="M-3005.167-913.271s-2.186,2.1-6.955.443c-5.25-1.823,3,1.965-2.3,4.929a8.821,8.821,0,0,0-2.492,3.767s-7.992-10.648-.344-12.473c0,0-3.684-2.175,4.1-3.683s12.809,3.686,7.983,7.018Z" transform="translate(-1035.507 -599.007)" fill="#070606"/>
      <path id="Path_4731" data-name="Path 4731" d="M-2961.3-736.579a2.023,2.023,0,0,0-2.248-1.771,2.023,2.023,0,0,0-1.776,2.247,2.026,2.026,0,0,0,2.253,1.777" transform="translate(-1087.56 -770.713)" fill="#fff"/>
      <path id="Path_4732" data-name="Path 4732" d="M-2968.376-738.961a2.2,2.2,0,0,1,1.931-2.442,2.2,2.2,0,0,1,2.443,1.925.176.176,0,0,1-.154.2.176.176,0,0,1-.2-.154,1.847,1.847,0,0,0-2.052-1.616,1.845,1.845,0,0,0-1.622,2.051,1.848,1.848,0,0,0,2.056,1.624.173.173,0,0,1,.2.154.175.175,0,0,1-.154.2,2.2,2.2,0,0,1-2.449-1.932Z" transform="translate(-1084.68 -767.834)" fill="#070606"/>
      <path id="Path_4733" data-name="Path 4733" d="M-2775.04-766.1a.537.537,0,0,0,.672.346.536.536,0,0,0,.345-.674.535.535,0,0,0-.674-.343.534.534,0,0,0-.343.671Z" transform="translate(-1266.879 -743.914)" fill="#070606"/>
      <path id="Path_4734" data-name="Path 4734" d="M-2801.085-789.484a.177.177,0,0,1-.042-.246,1.814,1.814,0,0,1,1.183-.743,1.817,1.817,0,0,1,1.361.311.176.176,0,0,1,.041.245.176.176,0,0,1-.245.042,1.466,1.466,0,0,0-1.1-.251,1.462,1.462,0,0,0-.954.6.176.176,0,0,1-.246.042Z" transform="translate(-1242.288 -721.58)" fill="#070606"/>
      <path id="Path_4735" data-name="Path 4735" d="M-2878.508-616.016a5.018,5.018,0,0,1-2.481-.931,7.3,7.3,0,0,0,2.473,2.422l.008-1.415v-.076Z" transform="translate(-1167.052 -885.142)" fill="#070606"/>
      <path id="Path_4736" data-name="Path 4736" d="M-2883.269-619.273a7.073,7.073,0,0,0,1.676,1.535l.005-1.014a5.118,5.118,0,0,1-1.681-.521Zm1.761,2a7.522,7.522,0,0,1-2.531-2.478.176.176,0,0,1,.248-.24,4.907,4.907,0,0,0,2.385.9.177.177,0,0,1,.172.177l-.008,1.491a.176.176,0,0,1-.266.151Z" transform="translate(-1164.15 -882.243)" fill="#070606"/>
      <path id="Path_4737" data-name="Path 4737" d="M-2802.839-667.927a2.166,2.166,0,0,0,2.24,1.108" transform="translate(-1240.704 -837.096)" fill="#fff"/>
      <path id="Path_4738" data-name="Path 4738" d="M-2803.8-669.511a2.352,2.352,0,0,1-2.081-1.228.176.176,0,0,1,.083-.234.176.176,0,0,1,.235.083,1.991,1.991,0,0,0,2.061,1.009.171.171,0,0,1,.2.154.176.176,0,0,1-.154.2,2.935,2.935,0,0,1-.34.021Z" transform="translate(-1237.818 -834.208)" fill="#070606"/>
      <path id="Path_4739" data-name="Path 4739" d="M-3882.533,2095.045l-19.239-11.609.25-.413,19.239,11.609-.25.413Z" transform="translate(-205.023 -3429.708)" fill="#070606"/>
      <path id="Path_4740" data-name="Path 4740" d="M-2924.831,2300.688l-.018-.483,21.672-.862.019.482-21.673.862Z" transform="translate(-1125.717 -3633.577)" fill="#070606"/>
      <path id="Path_4741" data-name="Path 4741" d="M-3697.2,756.532l-.344-.338c19.109-19.424,25-42.093,26.57-57.689a99.782,99.782,0,0,0-1.172-29.48l.47-.111a100.36,100.36,0,0,1,1.183,29.639c-1.582,15.674-7.5,38.455-26.706,57.979Z" transform="translate(-397.491 -2096.991)" fill="#070606"/>
      <path id="Path_4742" data-name="Path 4742" d="M-3397.441-1290.248a3.85,3.85,0,0,1,.216-5.434,3.851,3.851,0,0,1,5.435.217.168.168,0,0,1-.009.239.169.169,0,0,1-.239-.009,3.509,3.509,0,0,0-4.959-.2,3.512,3.512,0,0,0-.2,4.957.168.168,0,0,1-.01.239.169.169,0,0,1-.239-.01Z" transform="translate(-679.366 -244.513)" fill="#070606"/>
      <path id="Path_4743" data-name="Path 4743" d="M-683.259,107.6a.169.169,0,0,1-.162-.175.173.173,0,0,1,.176-.162A3.506,3.506,0,0,0-679.6,103.9a3.507,3.507,0,0,0-3.366-3.645.17.17,0,0,1-.162-.176.186.186,0,0,1,.176-.162,3.844,3.844,0,0,1,3.691,4,3.844,3.844,0,0,1-4,3.689Z" transform="translate(-3238.134 -1560.741)" fill="#070606"/>
      <path id="Path_4744" data-name="Path 4744" d="M-1077.289-1192.024v7.777a1.078,1.078,0,0,0,1.078,1.078,1.078,1.078,0,0,0,1.078-1.078v-7.777a1.078,1.078,0,0,0-1.078-1.078,1.078,1.078,0,0,0-1.078,1.078Z" transform="translate(-2866.936 -342.149)" fill="#070606"/>
      <path id="Path_4745" data-name="Path 4745" d="M-1075.133-1316.18v-1.931a1.078,1.078,0,0,0-1.078-1.078,1.078,1.078,0,0,0-1.078,1.078v1.931a1.078,1.078,0,0,0,1.078,1.078,1.078,1.078,0,0,0,1.078-1.078Z" transform="translate(-2866.936 -223.319)" fill="#070606"/>
      <path id="Path_4746" data-name="Path 4746" d="M-1577.357,1310.973c-2.448-.856-4.717-3.485-4.114-6.241.561-2.569,3.122-4,5.806-5.159,2.429-1.052,5.071-2.383,5.665-4.88.768-3.224-2.029-5.724-4.468-7.688l-.119-.1c-3.921-3.161-7.785-6.5-11.485-9.926a33.155,33.155,0,0,1-5.906-6.626c-5.76-9.252,1.051-17.341,9.3-17.474,5.153-.1,10.038,2.749,13.514,6.716a25.893,25.893,0,0,1,6.147,13.667c.509,4.032.1,8.385,1.934,11.978,1.283,2.508,3.546,4.418,4.822,6.975,2.066,4.142,1.151,9.007.793,13.368a.162.162,0,0,1-.182.155.169.169,0,0,1-.154-.182c.348-4.272,1.269-9.125-.76-13.19-1.248-2.5-3.526-4.44-4.82-6.972-1.88-3.678-1.458-8.058-1.969-12.089a25.543,25.543,0,0,0-6.067-13.487c-3.41-3.893-8.143-6.669-13.253-6.6-7.778.127-14.75,7.754-9.021,16.959a32.886,32.886,0,0,0,5.849,6.557c3.695,3.42,7.553,6.755,11.468,9.911l.118.1c2.54,2.046,5.4,4.591,4.585,8.029-.631,2.648-3.356,4.027-5.86,5.112-2.6,1.126-5.081,2.5-5.61,4.922-.563,2.575,1.584,5.041,3.9,5.85,2.5.876,5.308.391,7.72-.2a56.828,56.828,0,0,0,8.906-2.979.168.168,0,0,1,.222.089.169.169,0,0,1-.089.222,57.086,57.086,0,0,1-8.959,3c-2.587.633-5.383,1.075-7.911.19Z" transform="translate(-2379.855 -2647.346)" fill="#070606"/>
      <path id="Path_4747" data-name="Path 4747" d="M-1189.66,1665.974a.168.168,0,0,1-.149-.186c1.718-15.728-6.718-38.581-11.9-50.8a.168.168,0,0,1,.089-.221.169.169,0,0,1,.222.089c5.195,12.253,13.651,35.169,11.925,50.972a.169.169,0,0,1-.186.149Z" transform="translate(-2749.665 -2988.387)" fill="#070606"/>
      <path id="Path_4748" data-name="Path 4748" d="M-966.662,1925.224c1.454.311,2.683,1.455,4.17,1.4a3.188,3.188,0,0,0,3.154-2.587c.124-1.481-1.1-2.69-2.234-3.655s-2.367-2.157-2.271-3.641a3.254,3.254,0,0,1,1.372-2.278,10.158,10.158,0,0,1,2.442-1.229q3.964-1.581,7.813-3.432a18.675,18.675,0,0,0,4.252-2.57,6.983,6.983,0,0,0,2.478-4.2c.389-2.868-1.8-5.678-4.552-6.575a10.155,10.155,0,0,0-8.3,1.363,14.419,14.419,0,0,0-5.532,6.288c-.948,2.1-1.438,4.5-3.042,6.146-1.11,1.142-2.648,1.8-3.747,2.95-1.637,1.717-2.926,4.87-2.616,7.011.106.742-.376,3.513,6.611,5.007Z" transform="translate(-2964.922 -3253.516)" fill="#d1d1e6"/>
      <path id="Path_4749" data-name="Path 4749" d="M-994.894,2087.578a.17.17,0,0,1-.133-.2c1.693-8.8,10.043-19.729,14.87-25.462a.168.168,0,0,1,.238-.02.169.169,0,0,1,.021.238c-4.806,5.707-13.119,16.585-14.8,25.308a.169.169,0,0,1-.2.134Z" transform="translate(-2944.46 -3409.762)" fill="#070606"/>
      <path id="Path_4750" data-name="Path 4750" d="M-2208.016,988.421a3.843,3.843,0,0,1,.216-5.434,3.851,3.851,0,0,1,5.435.217.168.168,0,0,1-.009.238.169.169,0,0,1-.239-.009,3.507,3.507,0,0,0-4.958-.2,3.507,3.507,0,0,0-.2,4.957.167.167,0,0,1-.009.238.169.169,0,0,1-.239-.009Z" transform="translate(-1800.328 -2392.028)" fill="#070606"/>
      <path id="Path_4751" data-name="Path 4751" d="M-535.093,763.612l-6.27,8.147-8.147-6.269,6.27-8.147,8.147,6.269Z" transform="translate(-3364.338 -2180.331)" fill="#8bbdda"/>
      <path id="Path_4752" data-name="Path 4752" d="M-622.34,696.923l.051,10.278-10.279.051-.051-10.278,10.279-.051Z" transform="translate(-3286.012 -2123.389)" fill="#fb8d71"/>
      <path id="Path_4753" data-name="Path 4753" d="M-1996.1-1321.5a12.094,12.094,0,0,1-12.093,12.093,12.094,12.094,0,0,1-12.093-12.093,12.094,12.094,0,0,1,12.093-12.095A12.094,12.094,0,0,1-1996.1-1321.5Z" transform="translate(-1978.213 -209.742)" fill="#fff"/>
      <path id="Path_4754" data-name="Path 4754" d="M-2011.08-1336.3A11.931,11.931,0,0,0-2023-1324.385a11.93,11.93,0,0,0,11.917,11.916,11.93,11.93,0,0,0,11.917-11.916,11.931,11.931,0,0,0-11.917-11.919Zm0,24.188a12.282,12.282,0,0,1-12.269-12.269,12.284,12.284,0,0,1,12.269-12.271,12.284,12.284,0,0,1,12.269,12.271,12.283,12.283,0,0,1-12.269,12.269Z" transform="translate(-1975.329 -206.857)" fill="#070606"/>
      <path id="Path_4755" data-name="Path 4755" d="M-1857.194-1251.006a3.058,3.058,0,0,1-3.057,3.057,3.058,3.058,0,0,1-3.058-3.057,3.058,3.058,0,0,1,3.058-3.058,3.058,3.058,0,0,1,3.057,3.058Z" transform="translate(-2126.157 -284.696)" fill="#fff"/>
      <path id="Path_4756" data-name="Path 4756" d="M-1863.135-1256.776a2.884,2.884,0,0,0-2.881,2.882,2.884,2.884,0,0,0,2.881,2.881,2.884,2.884,0,0,0,2.881-2.881,2.884,2.884,0,0,0-2.881-2.882Zm0,6.115a3.237,3.237,0,0,1-3.234-3.233,3.238,3.238,0,0,1,3.234-3.234,3.238,3.238,0,0,1,3.234,3.234,3.238,3.238,0,0,1-3.234,3.233Z" transform="translate(-2123.273 -281.808)" fill="#070606"/>
      <path id="Path_4757" data-name="Path 4757" d="M-1921.479-1114.16a6.406,6.406,0,0,1,6.406-6.407,6.406,6.406,0,0,1,6.406,6.407" transform="translate(-2071.335 -410.509)" fill="#fff"/>
      <path id="Path_4758" data-name="Path 4758" d="M-1911.552-1116.867a.177.177,0,0,1-.177-.176,6.237,6.237,0,0,0-6.229-6.231,6.237,6.237,0,0,0-6.229,6.231.176.176,0,0,1-.176.176.176.176,0,0,1-.176-.176,6.59,6.59,0,0,1,6.582-6.583,6.59,6.59,0,0,1,6.582,6.583.177.177,0,0,1-.176.176Z" transform="translate(-2068.452 -407.626)" fill="#070606"/>
      <path id="Path_4759" data-name="Path 4759" d="M-2155.7-803.619v7.844a1.3,1.3,0,0,1-1.3,1.3h-44.124a1.3,1.3,0,0,1-1.3-1.3v-7.844a1.3,1.3,0,0,1,1.3-1.3H-2157a1.3,1.3,0,0,1,1.3,1.3Z" transform="translate(-1806.566 -707.991)" fill="#fff"/>
      <path id="Path_4760" data-name="Path 4760" d="M-2204-807.625a1.124,1.124,0,0,0-1.122,1.122v7.844a1.123,1.123,0,0,0,1.122,1.122h44.124a1.123,1.123,0,0,0,1.121-1.122V-806.5a1.123,1.123,0,0,0-1.121-1.122Zm44.124,10.441H-2204a1.476,1.476,0,0,1-1.474-1.475V-806.5a1.476,1.476,0,0,1,1.474-1.474h44.124a1.476,1.476,0,0,1,1.474,1.474v7.844a1.476,1.476,0,0,1-1.474,1.475Z" transform="translate(-1803.682 -705.107)" fill="#070606"/>
      <path id="Path_4761" data-name="Path 4761" d="M-2155.7-533.249v7.844a1.3,1.3,0,0,1-1.3,1.3h-44.124a1.3,1.3,0,0,1-1.3-1.3v-7.844a1.3,1.3,0,0,1,1.3-1.3H-2157a1.3,1.3,0,0,1,1.3,1.3Z" transform="translate(-1806.566 -962.799)" fill="#fff"/>
      <path id="Path_4762" data-name="Path 4762" d="M-2204-537.255a1.124,1.124,0,0,0-1.122,1.122v7.845a1.123,1.123,0,0,0,1.122,1.121h44.124a1.123,1.123,0,0,0,1.121-1.121v-7.845a1.123,1.123,0,0,0-1.121-1.122Zm44.124,10.44H-2204a1.476,1.476,0,0,1-1.474-1.474v-7.845a1.476,1.476,0,0,1,1.474-1.474h44.124a1.476,1.476,0,0,1,1.474,1.474v7.845a1.476,1.476,0,0,1-1.474,1.474Z" transform="translate(-1803.682 -959.915)" fill="#070606"/>
      <path id="Path_4763" data-name="Path 4763" d="M-2132.384-471.461a1.686,1.686,0,0,1-1.686,1.686,1.687,1.687,0,0,1-1.689-1.686,1.687,1.687,0,0,1,1.689-1.686,1.686,1.686,0,0,1,1.686,1.686Z" transform="translate(-1869.389 -1020.665)" fill="#fff"/>
      <path id="Path_4764" data-name="Path 4764" d="M-2136.954-475.855a1.513,1.513,0,0,0-1.512,1.51,1.513,1.513,0,0,0,1.512,1.51,1.511,1.511,0,0,0,1.51-1.51,1.511,1.511,0,0,0-1.51-1.51Zm0,3.372a1.866,1.866,0,0,1-1.865-1.863,1.866,1.866,0,0,1,1.865-1.862,1.865,1.865,0,0,1,1.863,1.862,1.865,1.865,0,0,1-1.863,1.863Z" transform="translate(-1866.505 -1017.781)" fill="#070606"/>
      <path id="Path_4765" data-name="Path 4765" d="M-2029.623-471.461a1.686,1.686,0,0,1-1.686,1.686,1.686,1.686,0,0,1-1.689-1.686,1.686,1.686,0,0,1,1.689-1.686,1.686,1.686,0,0,1,1.686,1.686Z" transform="translate(-1966.234 -1020.665)" fill="#fff"/>
      <path id="Path_4766" data-name="Path 4766" d="M-2034.193-475.855a1.513,1.513,0,0,0-1.514,1.51,1.513,1.513,0,0,0,1.514,1.51,1.511,1.511,0,0,0,1.509-1.51,1.511,1.511,0,0,0-1.509-1.51Zm0,3.372a1.866,1.866,0,0,1-1.866-1.863,1.866,1.866,0,0,1,1.866-1.862,1.864,1.864,0,0,1,1.861,1.862,1.864,1.864,0,0,1-1.861,1.863Z" transform="translate(-1963.35 -1017.781)" fill="#070606"/>
      <path id="Path_4767" data-name="Path 4767" d="M-1926.854-471.461a1.686,1.686,0,0,1-1.686,1.686,1.686,1.686,0,0,1-1.689-1.686,1.686,1.686,0,0,1,1.689-1.686,1.686,1.686,0,0,1,1.686,1.686Z" transform="translate(-2063.089 -1020.665)" fill="#fff"/>
      <path id="Path_4768" data-name="Path 4768" d="M-1931.433-475.855a1.513,1.513,0,0,0-1.513,1.51,1.513,1.513,0,0,0,1.513,1.51,1.511,1.511,0,0,0,1.51-1.51,1.512,1.512,0,0,0-1.51-1.51Zm0,3.372a1.867,1.867,0,0,1-1.866-1.863,1.867,1.867,0,0,1,1.866-1.862,1.865,1.865,0,0,1,1.862,1.862,1.865,1.865,0,0,1-1.862,1.863Z" transform="translate(-2060.196 -1017.781)" fill="#070606"/>
      <path id="Path_4769" data-name="Path 4769" d="M-1824.094-471.461a1.686,1.686,0,0,1-1.686,1.686,1.686,1.686,0,0,1-1.689-1.686,1.686,1.686,0,0,1,1.689-1.686,1.686,1.686,0,0,1,1.686,1.686Z" transform="translate(-2159.934 -1020.665)" fill="#fff"/>
      <path id="Path_4770" data-name="Path 4770" d="M-1828.673-475.855a1.513,1.513,0,0,0-1.513,1.51,1.513,1.513,0,0,0,1.513,1.51,1.511,1.511,0,0,0,1.509-1.51,1.511,1.511,0,0,0-1.509-1.51Zm0,3.372a1.866,1.866,0,0,1-1.866-1.863,1.866,1.866,0,0,1,1.866-1.862,1.865,1.865,0,0,1,1.862,1.862,1.865,1.865,0,0,1-1.862,1.863Z" transform="translate(-2157.041 -1017.781)" fill="#070606"/>
      <path id="Path_4771" data-name="Path 4771" d="M-2126.937-743.174v2.477a.453.453,0,0,1-.453.453h-19.946a.453.453,0,0,1-.453-.453v-2.477a.453.453,0,0,1,.453-.453h19.946a.453.453,0,0,1,.453.453Z" transform="translate(-1858.051 -765.753)" fill="#ff6300"/>
    </g>
  </g>
</svg>
