<svg xmlns="http://www.w3.org/2000/svg" width="300.944" height="289.807" viewBox="0 0 300.944 289.807">
  <g id="Group_6394" data-name="Group 6394" transform="translate(-1688 1289.678)">
    <path id="Path_4616" data-name="Path 4616" d="M391.516,907.106c82.675,0,149.722,3.7,149.722,8.271s-67.047,8.27-149.722,8.27-149.722-3.7-149.722-8.27,67.047-8.271,149.722-8.271" transform="translate(1446.956 -1923.517)" fill="#cad3dd" fill-rule="evenodd"/>
    <path id="Path_4617" data-name="Path 4617" d="M640.749,789.973l-.712,8.763,11.84.7,1.018-7.865Z" transform="translate(1215.17 -1855.343)" fill="#f6a37b" fill-rule="evenodd"/>
    <path id="Path_4618" data-name="Path 4618" d="M636.055,803.955C632.12,805.2,632,815,634.387,817.853c.013.016.034.031.049.047l40.627-2.041c.775-1.93-.34-7.255-4.543-9.549-3.543-1.934-13.958-2.471-22.261-2.576l-.148.284a13.564,13.564,0,0,1-7.219,1.566c-3.951-.312-4.812-1.589-4.839-1.63" transform="translate(1219.379 -1863.353)" fill="#070d34" fill-rule="evenodd"/>
    <path id="Path_4619" data-name="Path 4619" d="M707.779,818.055l10.445-.525c.775-1.93,1.253-6.914-2.949-9.207a30.383,30.383,0,0,0-6.317-1.717,12.983,12.983,0,0,0-1.179,11.449" transform="translate(1176.218 -1865.024)" fill="#e0e1e3" fill-rule="evenodd"/>
    <path id="Path_4620" data-name="Path 4620" d="M633.765,828.2a6.69,6.69,0,0,0,1.182,2.667c.014.016.034.031.049.047l40.626-2.041a5.463,5.463,0,0,0,.108-2.78Z" transform="translate(1218.82 -1876.364)" fill="#e0e1e3" fill-rule="evenodd"/>
    <path id="Path_4621" data-name="Path 4621" d="M498.05,569.9s-1.568,21.942,6.973,27.951,55.3,1.986,59.5,1.114c0,0-3.033,9.667-4.852,28.107s-2.936,35.187-2.936,35.187c2.668,2.428,11.126,3.567,15.073,2.01,0,0,15.015-63.506,14.151-72.9s-6.249-12.511-17.289-13.589S520.6,572.9,520.6,572.9Z" transform="translate(1297.875 -1727.257)" fill="#060921" fill-rule="evenodd"/>
    <path id="Path_4622" data-name="Path 4622" d="M710.634,428.309c-1.994-.385-4.243,3.233-5.022,8.08s.207,9.09,2.2,9.476,4.243-3.233,5.022-8.08-.207-9.09-2.2-9.476" transform="translate(1177.158 -1644.83)" fill="#e0e1e3" fill-rule="evenodd"/>
    <path id="Path_4623" data-name="Path 4623" d="M709.412,446.582c1.955.18,4.111-3.377,4.87-8.1.652-4.062.066-7.7-1.315-9-1.955-.18-4.111,3.376-4.869,8.1-.652,4.061-.066,7.7,1.314,9" transform="translate(1175.712 -1645.526)" fill="#aeb0b3" fill-rule="evenodd"/>
    <path id="Path_4624" data-name="Path 4624" d="M713.617,449.349s7.485,4.085,8.194,6.112,1.631,12.121,1.286,12.729-1.437.114-1.71.078-.278-8.254-1.167-11.208-7.326-6.194-7.326-6.194Z" transform="translate(1172.765 -1657.092)" fill="#aeb0b3" fill-rule="evenodd"/>
    <path id="Path_4625" data-name="Path 4625" d="M771.129,479.02c.086.013.172.026.258.041a30.834,30.834,0,0,1,1.3,26.429,31.33,31.33,0,0,1-1.4,2.925c12.067-1.99,9.662-27.888-.158-29.4" transform="translate(1138.871 -1674.361)" fill="#ff6300" fill-rule="evenodd"/>
    <path id="Path_4626" data-name="Path 4626" d="M301.667,780.849a17.327,17.327,0,1,0,17.327,17.328,17.33,17.33,0,0,0-17.327-17.328m0-17.511a34.839,34.839,0,1,0,34.838,34.839A34.843,34.843,0,0,0,301.667,763.338Z" transform="translate(1432.385 -1839.841)" fill="#2a1b1a" fill-rule="evenodd"/>
    <path id="Path_4627" data-name="Path 4627" d="M333.644,806.711l-7.025,2.283a10.165,10.165,0,0,0-5.311-3.832v-7.375a17.348,17.348,0,0,1,12.336,8.925M330.807,826.9l-4.337-5.97a10.091,10.091,0,0,0,2.019-6.072l0-.257,7.007-2.277a17.518,17.518,0,0,1,.185,2.533A17.267,17.267,0,0,1,330.807,826.9Zm-20.138,3.492L315,824.432a10.177,10.177,0,0,0,6.7,0l4.332,5.962a17.348,17.348,0,0,1-15.365,0Zm-9.46-18.065,7.007,2.277,0,.255a10.092,10.092,0,0,0,2.02,6.072L305.9,826.9a17.339,17.339,0,0,1-4.687-14.574Zm14.185-14.543v7.375a10.167,10.167,0,0,0-5.312,3.833l-7.024-2.283A17.35,17.35,0,0,1,315.393,797.786ZM318.351,792a22.857,22.857,0,1,0,22.857,22.857A22.86,22.86,0,0,0,318.351,792Z" transform="translate(1415.701 -1856.525)" fill="#979999" fill-rule="evenodd"/>
    <path id="Path_4628" data-name="Path 4628" d="M344.75,837.36a3.9,3.9,0,1,0,3.9,3.9,3.9,3.9,0,0,0-3.9-3.9" transform="translate(1389.302 -1882.923)" fill="#4c362e" fill-rule="evenodd"/>
    <path id="Path_4629" data-name="Path 4629" d="M828.137,780.849a17.327,17.327,0,1,0,17.327,17.328,17.33,17.33,0,0,0-17.327-17.328m0-17.511a34.839,34.839,0,1,0,34.839,34.839A34.843,34.843,0,0,0,828.137,763.338Z" transform="translate(1125.968 -1839.841)" fill="#2a1b1a" fill-rule="evenodd"/>
    <path id="Path_4630" data-name="Path 4630" d="M860.114,806.711l-7.024,2.283a10.171,10.171,0,0,0-5.312-3.832v-7.375a17.347,17.347,0,0,1,12.336,8.925M857.278,826.9l-4.337-5.97a10.093,10.093,0,0,0,2.019-6.072l0-.257,7.007-2.277a17.527,17.527,0,0,1,.185,2.533A17.266,17.266,0,0,1,857.278,826.9Zm-20.138,3.492,4.332-5.963a10.176,10.176,0,0,0,6.7,0l4.332,5.962a17.348,17.348,0,0,1-15.365,0Zm-9.46-18.065,7.007,2.277,0,.255a10.089,10.089,0,0,0,2.02,6.072l-4.337,5.97a17.337,17.337,0,0,1-4.687-14.574Zm14.185-14.543v7.375a10.167,10.167,0,0,0-5.312,3.833l-7.024-2.283A17.35,17.35,0,0,1,841.865,797.786ZM844.822,792a22.857,22.857,0,1,0,22.857,22.857A22.86,22.86,0,0,0,844.822,792Z" transform="translate(1109.283 -1856.525)" fill="#979999" fill-rule="evenodd"/>
    <path id="Path_4631" data-name="Path 4631" d="M871.22,837.36a3.9,3.9,0,1,0,3.9,3.9,3.9,3.9,0,0,0-3.9-3.9" transform="translate(1082.885 -1882.923)" fill="#4c362e" fill-rule="evenodd"/>
    <path id="Path_4632" data-name="Path 4632" d="M294.532,693.989h-15.1S274.1,704.3,275.21,706.976s6.124,2.428,6.124,2.428Z" transform="translate(1427.595 -1799.478)" fill="#ff6300" fill-rule="evenodd"/>
    <path id="Path_4633" data-name="Path 4633" d="M305.741,688H286.691s-8.559,13.038-8.613,18.172,5.435,5.45,5.435,5.45Z" transform="translate(1425.838 -1795.99)" fill="#979999" fill-rule="evenodd"/>
    <path id="Path_4634" data-name="Path 4634" d="M556.039,368.236l-6.07,10.394c.107-.024,11.354,8.987,12.224,9.195l5.451-12.83Z" transform="translate(1267.591 -1609.883)" fill="#f4b391" fill-rule="evenodd"/>
    <path id="Path_4635" data-name="Path 4635" d="M600.307,315.585c1.036,23.867-5.384,37.092-34.425,25.143l2.253-19.164,9.9-8.149Z" transform="translate(1258.329 -1577.976)" fill="#f4b391" fill-rule="evenodd"/>
    <path id="Path_4636" data-name="Path 4636" d="M600.157,289.935c-9.032,7.82-31.564-15.8-38.838-3.572,0,0-7.69,2.046-10.5,9.133s3.612,27.11,3.612,27.11l8.244-7.9c-6.134-6.157,2.615-11.384,4.923-3.965l4.234-9.253c9.109,3.571,28.536,4.336,28.327-11.556" transform="translate(1267.512 -1560.145)" fill="#1c2021" fill-rule="evenodd"/>
    <path id="Path_4637" data-name="Path 4637" d="M586.471,372.862c1.226,3.661,2.719,7.016,7.6,7.576a3.776,3.776,0,0,1-2.322.867,8,8,0,0,1-7.386-6.293Z" transform="translate(1247.572 -1612.575)" fill="#1c2021" fill-rule="evenodd"/>
    <path id="Path_4638" data-name="Path 4638" d="M581.026,274.216c-18.633.194-24.761,9.279-24.3,25.595.176,6.188-1.916,6.411-7.513,5.947-19.283-1.6-30.486-35.007-7.491-48.41,19.428-11.323,42.634,3.473,39.3,16.867" transform="translate(1279.869 -1543)" fill="#ff6300" fill-rule="evenodd"/>
    <path id="Path_4639" data-name="Path 4639" d="M599.73,300.308c-18.633.194-24.761,9.279-24.3,25.595.176,6.188-1.916,6.411-7.513,5.948a17.964,17.964,0,0,1-6.91-2.048c4.244.645,8.99.9,10.815-.712,3.608-3.187-.738-15.554,8.021-24.879,5.913-6.294,14.939-6.417,20.183-5.832a10.85,10.85,0,0,1-.3,1.929" transform="translate(1261.166 -1569.093)" fill="#b70019" fill-rule="evenodd"/>
    <path id="Path_4640" data-name="Path 4640" d="M567.845,330a5.581,5.581,0,1,1-5.59,5.571,5.581,5.581,0,0,1,5.59-5.571" transform="translate(1260.44 -1587.631)" fill="#196e55" fill-rule="evenodd"/>
    <path id="Path_4641" data-name="Path 4641" d="M622.23,476.27a58.585,58.585,0,0,0-13.166.37c-6.583,1.035-34.277-6.9-37.019-7.713s-9.581-17.7-9.581-17.7l-11.6,6.5s10.773,17.075,15.221,19.744,35.487,6.2,39.194,6.5,16.563-1.723,16.563-1.723Z" transform="translate(1267.068 -1658.184)" fill="#f6a37b" fill-rule="evenodd"/>
    <path id="Path_4642" data-name="Path 4642" d="M703.148,536.463s-9.934-18.089-10.527-23.575,17.051-10.824,17.051-10.824l11.862,25.5-10.379,10.676Z" transform="translate(1184.573 -1687.773)" fill="#196e55" fill-rule="evenodd"/>
    <path id="Path_4643" data-name="Path 4643" d="M262.238,757.866s-4.742,6.8-12.452,18.221S240,792.545,240,792.545s4,2.521,12.158-5.782,27.133-20.017,27.133-20.017Z" transform="translate(1448 -1836.656)" fill="#2a1b1a" fill-rule="evenodd"/>
    <path id="Path_4644" data-name="Path 4644" d="M792.777,726.439c15.733-1.449,41.426,10.054,48.929,27.875-39.322-5.747-42.571,2.025-65.091,17.348-7.419,5.047-15.865,2.224-15.865,2.224Z" transform="translate(1144.911 -1818.293)" fill="#196e55" fill-rule="evenodd"/>
    <path id="Path_4645" data-name="Path 4645" d="M792.777,726.439a43.787,43.787,0,0,1,15.975,1.981A19.139,19.139,0,0,0,800.3,738.3c-1.825,5.273-2.51,12.672-2.715,19.163-6.253,3.327-12.127,8.18-20.973,14.2-7.419,5.048-15.865,2.224-15.865,2.224Z" transform="translate(1144.911 -1818.294)" fill="#05503a" fill-rule="evenodd"/>
    <path id="Path_4646" data-name="Path 4646" d="M471.321,563.078l-18.386,8.9s-1.631,2.966,1.187,10.082,9.638,19.424,11.565,34.251,1.927,50.264-15.272,50.857-40.775.593-40.775.593a24.381,24.381,0,0,1-8.587-2.353,11.672,11.672,0,0,1-4.905-4.912l-61.829-16.607-71.615.742.3,7.562s23.575,5.931,43.74,9.935,26.392,5.041,26.392,5.041l1.76,6.569s41.387,10.779,80.975,12.262,51.746-2.965,51.746-2.965,18.831-12.9,24.761-34.251,11.12-28.32,1.779-46.705-22.834-39-22.834-39" transform="translate(1434.786 -1723.285)" fill="#2a1b1a" fill-rule="evenodd"/>
    <path id="Path_4647" data-name="Path 4647" d="M620,791.136l-1.151,8.716,11.79,1.3,1.411-7.8Z" transform="translate(1227.501 -1856.02)" fill="#f4b391" fill-rule="evenodd"/>
    <path id="Path_4648" data-name="Path 4648" d="M614.644,805.349c-3.992,1.045-4.6,10.829-2.363,13.8.013.017.032.033.047.05h40.678c.871-1.889.024-7.263-4.058-9.765-3.442-2.109-13.817-3.167-22.1-3.688l-.162.275a13.554,13.554,0,0,1-7.287,1.2c-3.931-.51-4.727-1.828-4.751-1.87" transform="translate(1232.074 -1864.292)" fill-rule="evenodd"/>
    <path id="Path_4649" data-name="Path 4649" d="M685.643,822.637H696.1c.871-1.889,1.6-6.843-2.484-9.344a30.342,30.342,0,0,0-6.222-2.031,12.985,12.985,0,0,0-1.753,11.376" transform="translate(1188.977 -1867.733)" fill="#fff" fill-rule="evenodd"/>
    <path id="Path_4650" data-name="Path 4650" d="M611.571,831.845a6.7,6.7,0,0,0,1.047,2.722c.013.017.032.033.046.05h40.678a5.471,5.471,0,0,0,.248-2.772Z" transform="translate(1231.737 -1879.713)" fill="#fff" fill-rule="evenodd"/>
    <path id="Path_4651" data-name="Path 4651" d="M608.381,563.078s-3.559,5.041.3,13.641S633.639,616.181,628.3,632.8s-14.876,45.043-32.669,50.677-97.266-4.448-97.266-4.448-3.262,15.42,18.682,15.717,76.508,4.745,92.225-6.523,41.812-56.047,40.923-65.536-41.813-59.605-41.813-59.605" transform="translate(1297.726 -1723.285)" fill="#196e55" fill-rule="evenodd"/>
    <path id="Path_4652" data-name="Path 4652" d="M500.925,858.3c1.836,3.987,6.459,8.115,17.711,8.266,18.92.256,62.084,3.6,83.7-2.709-27.036,2.31-74.491-.174-101.408-5.557" transform="translate(1296.136 -1895.114)" fill="#0a4533" fill-rule="evenodd"/>
    <path id="Path_4653" data-name="Path 4653" d="M403.709,683.688H288.947c-5.3,1.252-23.467,19.175-26.244,31.137,24.217,6.084,101.5,17.624,133.444,15.865-17.693-20.755,7.834-33.222,7.562-47" transform="translate(1434.786 -1793.483)" fill="#196e55" fill-rule="evenodd"/>
    <path id="Path_4654" data-name="Path 4654" d="M382.031,732.124q3.6.225,6.984.372a33.481,33.481,0,0,0,2.252-11.806c0-24.175-29.312-38.64-65.457-32.3-17.542,3.076-33.472,10.488-45.226,20.066a97.681,97.681,0,0,1,39.763-16.422c34.814-6.1,63.047,7.827,63.047,31.112a31.321,31.321,0,0,1-1.361,8.98" transform="translate(1424.38 -1795.351)" fill="#035039" fill-rule="evenodd"/>
    <path id="Path_4655" data-name="Path 4655" d="M339.618,457.839H273.293a18.293,18.293,0,0,0-18.239,18.24V531.35a18.293,18.293,0,0,0,18.239,18.239h66.325Z" transform="translate(1439.238 -1662.033)" fill="#196e55" fill-rule="evenodd"/>
    <rect id="Rectangle_2432" data-name="Rectangle 2432" width="2.952" height="91.75" transform="translate(1775.905 -1204.194)" fill="#035039"/>
    <path id="Path_4656" data-name="Path 4656" d="M352.174,457.839H285.849a18.082,18.082,0,0,0-9.222,2.522h75.547Z" transform="translate(1426.682 -1662.033)" fill="#1ead83" fill-rule="evenodd"/>
    <path id="Path_4657" data-name="Path 4657" d="M267.477,664.124a18.185,18.185,0,0,0,13.047,5.527h66.325v-5.527Z" transform="translate(1432.008 -1782.096)" fill="#035039" fill-rule="evenodd"/>
    <rect id="Rectangle_2433" data-name="Rectangle 2433" width="84.564" height="3.316" transform="translate(1694.292 -1180.981)" fill="#035039"/>
    <rect id="Rectangle_2434" data-name="Rectangle 2434" width="114.762" height="4.298" transform="translate(1723.733 -1114.093)" fill="#196e55"/>
    <rect id="Rectangle_2435" data-name="Rectangle 2435" width="114.762" height="1.186" transform="translate(1723.733 -1110.981)" fill="#035039"/>
    <path id="Path_4658" data-name="Path 4658" d="M522.791,645.515H467.3V630.983a5.381,5.381,0,0,1,5.486-5.486l39.992,2.669c5.493.366,10.009,4.5,10.009,10.009Z" transform="translate(1315.704 -1759.608)" fill="#58302e" fill-rule="evenodd"/>
    <path id="Path_4659" data-name="Path 4659" d="M479.871,625.489q.116,0,.233.009l39.992,2.669c5.493.366,10.009,4.5,10.009,10.009v1.15a48.2,48.2,0,0,1-50.235-13.838" transform="translate(1308.39 -1759.609)" fill="#602b2b" fill-rule="evenodd"/>
    <path id="Path_4660" data-name="Path 4660" d="M335.589,818.725a10.527,10.527,0,0,0,0,21.036v.008l49.162,1.962q.5.04,1.012.041a12.529,12.529,0,1,0,0-25.058h0q-.509,0-1.008.04l-49.165,1.97Z" transform="translate(1398.242 -1870.907)" fill="#4d5254" fill-rule="evenodd"/>
    <path id="Path_4661" data-name="Path 4661" d="M488.718,564.142s-2.667,21.836,5.561,28.266,55.131,4.757,59.367,4.1c0,0-3.514,9.5-6.257,27.828s-4.7,35-4.7,35c2.543,2.559,10.933,4.121,14.953,2.764,0,0,18.182-62.672,17.79-72.093s-5.613-12.809-16.585-14.44-47.763-7.29-47.763-7.29Z" transform="translate(1303.481 -1723.904)" fill-rule="evenodd"/>
    <path id="Path_4662" data-name="Path 4662" d="M768.115,475.516a16.56,16.56,0,0,0-3.876-.949c.1.012.192.023.288.037a34.259,34.259,0,0,1,2.411,29.3,34.64,34.64,0,0,1-1.444,3.3,16.6,16.6,0,0,0,4.75-1.73c.036-.094.074-.187.11-.282a37.855,37.855,0,0,0-.978-29.139c-.409-.193-.829-.373-1.261-.536" transform="translate(1142.881 -1671.77)" fill="#d3d9e2" fill-rule="evenodd"/>
    <path id="Path_4663" data-name="Path 4663" d="M738.777,474.441a16.534,16.534,0,1,0,.967,32.6,34.625,34.625,0,0,0,1.444-3.3,34.259,34.259,0,0,0-2.411-29.3" transform="translate(1168.631 -1671.607)" fill="#196e55" fill-rule="evenodd"/>
    <path id="Path_4664" data-name="Path 4664" d="M720.376,505.462a16.535,16.535,0,0,0,19.37,19.723,34.639,34.639,0,0,0,1.444-3.3,34.283,34.283,0,0,0,2.163-10.239,56.744,56.744,0,0,1-13.977-2.247,42.368,42.368,0,0,1-9-3.937" transform="translate(1168.631 -1689.751)" fill="#035039" fill-rule="evenodd"/>
    <path id="Path_4665" data-name="Path 4665" d="M696.672,531.33a3.619,3.619,0,0,0-1.309.243h0a3.609,3.609,0,0,0-.417.193l-10.153,5.157,3.037,6.6,10.367-5.265h0a3.633,3.633,0,0,0-1.524-6.93" transform="translate(1189.121 -1704.807)" fill="#2a1b1a" fill-rule="evenodd"/>
    <path id="Path_4666" data-name="Path 4666" d="M502.153,381.49c-4.349,4.3-12.316,13.674-14.86,26.614-3.564,18.124-12.869,56.842-12.869,56.842a109.181,109.181,0,0,0,25.647,2.81c15.049-.015,19.118-6.776,19.118-6.776s3.109-33.059,4.612-48.406-5.03-21.648-5.03-21.648L507.4,380.919c-2.844-2.5-2.32-2.328-5.249.571" transform="translate(1311.559 -1616.246)" fill="#ff6300" fill-rule="evenodd"/>
    <path id="Path_4667" data-name="Path 4667" d="M540.108,379.652l-3.084,2.216c5.637,4.735,18.043,11.861,24.224,19.433,0,0,1.762-6.607-3.02-11.027-3.586-3.315-11.208-8.191-14.794-10.422-1.919-1.193-1.6-1.442-3.326-.2" transform="translate(1275.125 -1616.049)" fill="#bf5614" fill-rule="evenodd"/>
    <path id="Path_4668" data-name="Path 4668" d="M559.764,477.883c.87.67,33.83,13.5,39.148,13.44,4.584-.05,5.333-.715,7.74-.308s4.9.462,8.427,2.776,2.392,5.561,1.99,5.675-.384-1.484-1.422-2.854-4.9-2.172-4.9-2.172,2.951.872,3.812,2.623.168,5.4-.491,5.33-.206-2.312-.73-3.409-3.721-3.167-3.721-3.167,2.477,2.136,2.708,4.079-1.111,4.367-1.576,3.8.3-3.346-.171-4.509-2.574-1.779-2.574-1.779a4.034,4.034,0,0,1,2.01,2.244,6.975,6.975,0,0,1-.549,4.35c-.5.737-.389-1.671-1.287-3.428s-3.813-2.175-3.813-2.175a4.383,4.383,0,0,0-3.458,1.245c-1.256,1.468-3.332,1.6-5.246-.1s-5.579-3-8.028-3.523-30.268-4.686-34.045-6.75-12.331-20.419-12.331-20.419l12.815-4.5Z" transform="translate(1272.659 -1665.822)" fill="#f4b391" fill-rule="evenodd"/>
    <path id="Path_4669" data-name="Path 4669" d="M684.07,543.633a3.633,3.633,0,1,0,3.633,3.633,3.633,3.633,0,0,0-3.633-3.633" transform="translate(1191.656 -1711.968)" fill="#2a1b1a" fill-rule="evenodd"/>
    <path id="Path_4670" data-name="Path 4670" d="M539.408,413.679c-16.49-1.33-7.03,31.1-5.783,34.4l18.83-5.338c-.623-7.479-3.862-28.32-13.048-29.061" transform="translate(1279.331 -1636.308)" fill="#bf5614" fill-rule="evenodd"/>
    <path id="Path_4671" data-name="Path 4671" d="M325.061,709.037c24.852-11.231,66.074-12.469,74.581,9.341-14.194-19.169-62.323-12.108-74.581-9.341" transform="translate(1398.493 -1803.633)" fill="#20ad84" fill-rule="evenodd"/>
    <path id="Path_4672" data-name="Path 4672" d="M897.764,755.186c-10.5-9.753-19.233-14.323-29.659-17.751a44.748,44.748,0,0,1,29.659,17.751" transform="translate(1082.429 -1824.765)" fill="#339578" fill-rule="evenodd"/>
    <path id="Path_4673" data-name="Path 4673" d="M822.916,666.318h0a3.5,3.5,0,0,0-1.313,4.75l5.338,9.416a3.494,3.494,0,0,0,4.749,1.313h0a3.494,3.494,0,0,0,1.313-4.75l-5.338-9.417a3.5,3.5,0,0,0-4.749-1.313" transform="translate(1109.756 -1783.111)" fill="#ff6300" fill-rule="evenodd"/>
    <path id="Path_4674" data-name="Path 4674" d="M683.089,460.187c-2.906,0-5.646,4.017-6.119,8.971s1.5,8.97,4.408,8.97,5.647-4.017,6.12-8.97-1.5-8.971-4.408-8.971" transform="translate(1193.714 -1663.4)" fill="#e0e1e3" fill-rule="evenodd"/>
    <path id="Path_4675" data-name="Path 4675" d="M683.761,478.544c2.823-.2,5.439-4.134,5.9-8.962.4-4.15-.926-7.643-3.075-8.666-2.823.2-5.439,4.134-5.9,8.962-.4,4.15.926,7.643,3.075,8.666" transform="translate(1191.551 -1663.824)" fill="#aeb0b3" fill-rule="evenodd"/>
    <path id="Path_4676" data-name="Path 4676" d="M688.943,481.648s7.961,3.057,8.931,4.973,3.223,11.8,2.963,12.447-1.409.3-1.685.3-1.368-8.144-2.642-10.954-8.082-5.168-8.082-5.168Z" transform="translate(1187.005 -1675.891)" fill="#aeb0b3" fill-rule="evenodd"/>
  </g>
</svg>
